<svg xmlns="http://www.w3.org/2000/svg" xmlns:xlink="http://www.w3.org/1999/xlink" width="300" zoomAndPan="magnify" viewBox="0 0 224.87999 74.999997" height="100" preserveAspectRatio="xMidYMid meet" version="1.2"><defs><clipPath id="49b6bab687"><path d="M 167 9.8125 L 171 9.8125 L 171 17 L 167 17 Z M 167 9.8125 "/></clipPath><clipPath id="a62e97358c"><path d="M 150.085938 19 L 157 19 L 157 23 L 150.085938 23 Z M 150.085938 19 "/></clipPath><clipPath id="5b9b8ee7a7"><path d="M 166 35 L 170 35 L 170 42.792969 L 166 42.792969 Z M 166 35 "/></clipPath><clipPath id="e9e993cc36"><path d="M 150.085938 27 L 157 27 L 157 31 L 150.085938 31 Z M 150.085938 27 "/></clipPath><filter x="0%" y="0%" width="100%" filterUnits="objectBoundingBox" id="f46cb41033" height="100%"><feColorMatrix values="0 0 0 0 1 0 0 0 0 1 0 0 0 0 1 0 0 0 1 0" type="matrix" in="SourceGraphic"/></filter><clipPath id="a20de528b0"><path d="M 3 0.242188 L 61 0.242188 L 61 25 L 3 25 Z M 3 0.242188 "/></clipPath><clipPath id="750f2e8678"><path d="M 3.058594 0.21875 L 63.492188 11.4375 L 61.027344 24.703125 L 0.59375 13.488281 Z M 3.058594 0.21875 "/></clipPath><clipPath id="8cd3e41d73"><path d="M 3.058594 0.21875 L 63.492188 11.4375 L 61.027344 24.703125 L 0.59375 13.488281 Z M 3.058594 0.21875 "/></clipPath><clipPath id="6b763cb897"><rect x="0" width="65" y="0" height="26"/></clipPath><clipPath id="3828538763"><path d="M 3 1 L 58 1 L 58 29 L 3 29 Z M 3 1 "/></clipPath><clipPath id="c6a2a5a7c0"><path d="M 3.335938 0.960938 L 60.691406 15.699219 L 57.335938 28.769531 L -0.0195312 14.03125 Z M 3.335938 0.960938 "/></clipPath><clipPath id="3e1d7c3344"><path d="M 3.335938 0.960938 L 60.691406 15.699219 L 57.335938 28.769531 L -0.0195312 14.03125 Z M 3.335938 0.960938 "/></clipPath><clipPath id="69283bf368"><rect x="0" width="62" y="0" height="30"/></clipPath></defs><g id="c4479bc944"><path style=" stroke:none;fill-rule:nonzero;fill:#224b24;fill-opacity:1;" d="M 170.378906 22.617188 C 170.34375 22.636719 170.308594 22.660156 170.273438 22.679688 C 170.382812 22.859375 170.496094 23.035156 170.605469 23.214844 C 170.640625 23.191406 170.675781 23.171875 170.710938 23.148438 C 170.597656 22.972656 170.488281 22.792969 170.378906 22.617188 Z M 159.96875 28.929688 C 160.007812 28.90625 160.046875 28.882812 160.089844 28.859375 C 160.03125 28.5625 159.972656 28.261719 159.917969 27.964844 C 159.875 27.972656 159.835938 27.980469 159.796875 27.988281 C 159.851562 28.304688 159.910156 28.617188 159.96875 28.929688 Z M 170.792969 23.464844 C 170.742188 23.480469 170.710938 23.527344 170.714844 23.578125 C 170.75 23.929688 170.785156 24.28125 171.199219 24.523438 L 170.921875 23.535156 C 170.90625 23.480469 170.847656 23.449219 170.792969 23.464844 Z M 168.628906 25.605469 C 167.878906 25.484375 167.410156 25.777344 167.011719 26.238281 C 166.808594 26.476562 166.800781 26.699219 166.945312 26.96875 C 167.347656 27.730469 168.378906 28.316406 169.230469 28.257812 C 169.660156 28.226562 169.972656 28.03125 170.128906 27.632812 C 170.546875 26.589844 170.804688 25.5625 170.445312 24.402344 C 170.203125 23.617188 169.949219 22.941406 169.316406 22.367188 C 168.691406 21.804688 168.007812 21.617188 167.222656 21.574219 C 166.25 21.519531 165.394531 21.855469 164.511719 22.210938 C 163.273438 22.707031 162.519531 23.515625 162.355469 24.84375 C 162.242188 25.773438 162.121094 26.699219 162.03125 27.628906 C 161.945312 28.566406 162.332031 29.425781 162.546875 30.304688 C 162.640625 30.679688 162.8125 31.03125 162.957031 31.390625 C 163.21875 32.042969 163.542969 32.65625 164.085938 33.136719 C 164.234375 33.269531 164.34375 33.453125 164.46875 33.609375 C 164.433594 33.65625 164.398438 33.703125 164.363281 33.75 C 164.148438 33.628906 163.921875 33.523438 163.726562 33.375 C 162.765625 32.648438 161.8125 31.90625 160.855469 31.167969 C 160.132812 30.609375 159.75 29.820312 159.503906 28.980469 C 159.144531 27.746094 159.128906 26.460938 159.089844 25.1875 C 159.050781 23.871094 159.503906 22.652344 160.074219 21.511719 C 160.351562 20.957031 160.917969 20.519531 161.425781 20.117188 C 162.183594 19.519531 163.109375 19.195312 164.003906 18.851562 C 165.355469 18.332031 166.753906 18.417969 168.140625 18.703125 C 168.753906 18.832031 169.375 18.992188 169.933594 19.265625 C 170.835938 19.707031 171.671875 20.25 172.300781 21.082031 C 173.121094 22.171875 173.785156 23.332031 174.199219 24.625 C 174.636719 25.984375 174.769531 27.398438 174.355469 28.761719 C 174.09375 29.621094 173.757812 30.53125 172.917969 31.085938 C 172.558594 31.320312 172.257812 31.65625 171.886719 31.871094 C 170.8125 32.492188 169.652344 32.613281 168.453125 32.296875 C 168.007812 32.183594 167.566406 32.046875 167.125 31.917969 C 166.800781 31.828125 166.492188 31.738281 166.28125 31.421875 C 166.175781 31.261719 165.921875 31.199219 165.730469 31.101562 C 165.34375 30.898438 165.023438 30.664062 164.894531 30.199219 C 164.628906 29.234375 164.058594 28.363281 164.03125 27.324219 C 164 26.222656 164.382812 25.238281 164.921875 24.304688 C 165.117188 23.96875 165.402344 23.707031 165.839844 23.679688 C 166.269531 23.65625 166.695312 23.585938 167.125 23.566406 C 167.257812 23.558594 167.417969 23.621094 167.523438 23.707031 C 168.105469 24.160156 168.46875 24.75 168.628906 25.605469 "/><path style=" stroke:none;fill-rule:nonzero;fill:#224b24;fill-opacity:1;" d="M 176.03125 22.390625 C 175.746094 21.886719 175.496094 21.457031 175.261719 21.046875 C 175.3125 20.933594 175.324219 20.851562 175.375 20.800781 C 175.84375 20.3125 176.390625 19.898438 176.785156 19.324219 C 176.972656 19.050781 177.300781 18.949219 177.648438 18.863281 C 178.027344 18.769531 178.367188 18.503906 178.714844 18.304688 C 178.835938 18.238281 178.925781 18.070312 179.042969 18.058594 C 179.734375 17.996094 180.425781 17.949219 181.121094 17.945312 C 181.230469 17.945312 181.410156 18.195312 181.433594 18.347656 C 181.539062 19.078125 181.367188 19.804688 180.800781 20.25 C 179.527344 21.253906 178.144531 22.097656 176.511719 22.421875 C 176.421875 22.4375 176.320312 22.441406 176.226562 22.433594 C 176.15625 22.429688 176.085938 22.402344 176.03125 22.390625 "/><g clip-rule="nonzero" clip-path="url(#49b6bab687)"><path style=" stroke:none;fill-rule:nonzero;fill:#224b24;fill-opacity:1;" d="M 169.914062 9.84375 C 170.15625 10.214844 170.347656 10.429688 170.453125 10.679688 C 170.589844 11.003906 170.710938 11.347656 170.742188 11.691406 C 170.859375 13.015625 170.550781 14.289062 170.234375 15.558594 C 170.183594 15.769531 170.125 15.980469 170.058594 16.1875 C 169.851562 16.839844 169.667969 16.953125 168.957031 16.894531 C 168.863281 16.886719 168.761719 16.863281 168.667969 16.886719 C 167.925781 17.066406 167.78125 16.777344 167.6875 16.09375 C 167.597656 15.453125 167.601562 14.792969 167.625 14.140625 C 167.65625 13.132812 168.1875 12.296875 168.691406 11.476562 C 169.039062 10.910156 169.488281 10.40625 169.914062 9.84375 "/></g><path style=" stroke:none;fill-rule:nonzero;fill:#224b24;fill-opacity:1;" d="M 171.832031 34.402344 C 172.375 34.023438 172.726562 34.082031 173.203125 34.425781 C 174.1875 35.136719 174.882812 36.003906 175.261719 37.144531 C 175.519531 37.925781 175.820312 38.691406 176.042969 39.476562 C 176.183594 39.964844 176.09375 40.046875 175.621094 40.226562 C 175.316406 40.339844 174.96875 40.609375 174.714844 40.539062 C 174.453125 40.46875 174.292969 40.058594 174.0625 39.816406 C 173.71875 39.449219 173.269531 39.152344 173.019531 38.734375 C 172.234375 37.40625 171.757812 35.976562 171.832031 34.402344 "/><path style=" stroke:none;fill-rule:nonzero;fill:#224b24;fill-opacity:1;" d="M 176.113281 27.058594 C 176.207031 26.777344 176.304688 26.601562 176.320312 26.414062 C 176.390625 25.707031 176.863281 25.417969 177.46875 25.292969 C 178.851562 25.011719 180.222656 25.09375 181.542969 25.589844 C 181.910156 25.730469 182.238281 26.011719 182.535156 26.285156 C 182.824219 26.550781 182.75 26.957031 182.417969 27.21875 C 181.777344 27.722656 181.066406 28.042969 180.238281 28.109375 C 179.109375 28.195312 178.011719 28.125 176.980469 27.621094 C 176.667969 27.46875 176.394531 27.242188 176.113281 27.058594 "/><path style=" stroke:none;fill-rule:nonzero;fill:#224b24;fill-opacity:1;" d="M 161.660156 10.578125 C 162.382812 10.878906 162.96875 11.292969 163.414062 11.867188 C 163.765625 12.324219 164.054688 12.828125 164.371094 13.3125 C 164.953125 14.203125 165.078125 15.199219 164.976562 16.226562 C 164.941406 16.582031 164.761719 16.921875 164.617188 17.355469 C 164.382812 17.257812 164.089844 17.203125 163.875 17.042969 C 162.070312 15.699219 161.207031 13.863281 161.140625 11.636719 C 161.136719 11.507812 161.195312 11.367188 161.261719 11.25 C 161.332031 11.132812 161.457031 11.050781 161.53125 10.933594 C 161.589844 10.84375 161.609375 10.726562 161.660156 10.578125 "/><path style=" stroke:none;fill-rule:nonzero;fill:#224b24;fill-opacity:1;" d="M 175.285156 31.359375 C 175.621094 31.070312 175.914062 30.765625 176.265625 30.546875 C 176.429688 30.449219 176.734375 30.453125 176.925781 30.53125 C 178.121094 31.007812 179.136719 31.738281 180.050781 32.664062 C 180.578125 33.199219 180.832031 33.785156 180.988281 34.464844 C 181.0625 34.785156 180.972656 34.976562 180.644531 35.050781 C 179.773438 35.246094 178.933594 35.09375 178.214844 34.632812 C 177.023438 33.863281 176.066406 32.84375 175.367188 31.59375 C 175.324219 31.515625 175.304688 31.417969 175.285156 31.359375 "/><path style=" stroke:none;fill-rule:nonzero;fill:#224b24;fill-opacity:1;" d="M 172.007812 17.507812 C 172.117188 17.195312 172.15625 16.945312 172.277344 16.742188 C 172.621094 16.167969 172.96875 15.585938 173.375 15.046875 C 173.820312 14.453125 174.320312 13.890625 174.820312 13.335938 C 175.085938 13.042969 175.398438 12.800781 175.828125 13.074219 C 175.863281 13.097656 175.921875 13.082031 175.96875 13.09375 C 176.953125 13.34375 177.097656 13.640625 176.570312 14.550781 C 176.070312 15.40625 175.527344 16.234375 174.964844 17.046875 C 174.503906 17.714844 173.992188 18.347656 173.484375 18.980469 C 173.242188 19.28125 172.941406 19.328125 172.761719 19.035156 C 172.457031 18.542969 172.242188 17.992188 172.007812 17.507812 "/><path style=" stroke:none;fill-rule:nonzero;fill:#224b24;fill-opacity:1;" d="M 155.238281 37.042969 C 154.546875 37.074219 154.4375 36.90625 154.492188 36.382812 C 154.542969 35.925781 154.738281 35.585938 155.050781 35.265625 C 155.738281 34.554688 156.371094 33.789062 157.074219 33.101562 C 157.414062 32.769531 157.863281 32.550781 158.269531 32.289062 C 158.554688 32.105469 158.820312 32.171875 159.0625 32.382812 C 159.261719 32.554688 159.472656 32.714844 159.644531 32.910156 C 159.9375 33.238281 159.828125 33.640625 159.640625 33.921875 C 159.203125 34.582031 158.757812 35.265625 158.1875 35.800781 C 157.339844 36.59375 156.25 36.945312 155.238281 37.042969 "/><g clip-rule="nonzero" clip-path="url(#a62e97358c)"><path style=" stroke:none;fill-rule:nonzero;fill:#224b24;fill-opacity:1;" d="M 150.085938 20.449219 C 150.820312 19.59375 151.585938 19.332031 152.554688 19.738281 C 153.378906 20.085938 154.234375 20.359375 155.050781 20.726562 C 155.460938 20.910156 155.816406 21.226562 156.191406 21.484375 C 156.269531 21.539062 156.347656 21.605469 156.40625 21.683594 C 156.800781 22.195312 156.546875 22.902344 155.914062 22.9375 C 154.175781 23.035156 152.53125 22.757812 151.175781 21.539062 C 150.804688 21.203125 150.46875 20.832031 150.085938 20.449219 "/></g><g clip-rule="nonzero" clip-path="url(#5b9b8ee7a7)"><path style=" stroke:none;fill-rule:nonzero;fill:#224b24;fill-opacity:1;" d="M 168.105469 42.445312 C 167.765625 41.945312 167.460938 41.4375 167.351562 40.824219 C 167.289062 40.472656 167.171875 40.125 167.066406 39.78125 C 166.617188 38.277344 166.949219 36.929688 167.875 35.699219 C 168.023438 35.496094 168.160156 35.28125 168.328125 35.035156 C 169.003906 35.5625 169.308594 36.226562 169.363281 36.984375 C 169.40625 37.601562 169.371094 38.234375 169.316406 38.855469 C 169.238281 39.835938 169.234375 40.824219 168.878906 41.769531 C 168.734375 42.160156 168.523438 42.367188 168.105469 42.445312 "/></g><path style=" stroke:none;fill-rule:nonzero;fill:#224b24;fill-opacity:1;" d="M 160.941406 41.933594 C 160.863281 41.691406 160.746094 41.457031 160.714844 41.207031 C 160.539062 39.832031 160.765625 38.519531 161.378906 37.273438 C 161.421875 37.1875 161.460938 37.101562 161.507812 37.015625 C 162.109375 35.9375 162.238281 35.609375 163.753906 36.046875 C 164.042969 37.554688 163.59375 38.945312 162.953125 40.277344 C 162.582031 41.042969 161.777344 41.632812 160.941406 41.933594 "/><path style=" stroke:none;fill-rule:nonzero;fill:#224b24;fill-opacity:1;" d="M 156.21875 13.070312 C 156.433594 13.117188 156.644531 13.105469 156.769531 13.207031 C 157.867188 14.085938 158.898438 15.023438 159.320312 16.441406 C 159.574219 17.3125 159.550781 18.1875 159.394531 19.066406 C 159.335938 19.398438 159.15625 19.496094 158.882812 19.316406 C 158.523438 19.078125 158.121094 18.84375 157.871094 18.511719 C 157.339844 17.800781 156.8125 17.0625 156.4375 16.265625 C 155.980469 15.285156 155.964844 14.21875 156.21875 13.070312 "/><g clip-rule="nonzero" clip-path="url(#e9e993cc36)"><path style=" stroke:none;fill-rule:nonzero;fill:#224b24;fill-opacity:1;" d="M 150.519531 29.46875 C 150.746094 29.203125 150.863281 28.988281 151.039062 28.863281 C 152.316406 27.972656 153.761719 27.535156 155.285156 27.328125 C 155.660156 27.277344 156.039062 27.246094 156.40625 27.207031 C 156.609375 27.761719 156.601562 28.234375 156.488281 28.730469 C 156.414062 29.058594 156.292969 29.273438 155.957031 29.429688 C 155.074219 29.835938 154.1875 30.21875 153.207031 30.265625 C 152.882812 30.28125 152.535156 30.242188 152.226562 30.144531 C 151.683594 29.96875 151.160156 29.726562 150.519531 29.46875 "/></g><g style="fill:#053b07;fill-opacity:1;"><g transform="translate(53.415787, 43.743514)"><path style="stroke:none" d="M 4.34375 -16.828125 C 4.488281 -17.023438 4.691406 -17.125 4.953125 -17.125 C 5.085938 -17.125 5.332031 -17.082031 5.6875 -17 C 6.039062 -16.914062 6.4375 -16.8125 6.875 -16.6875 C 7.3125 -16.570312 7.71875 -16.453125 8.09375 -16.328125 C 8.476562 -16.210938 8.765625 -16.125 8.953125 -16.0625 C 9.171875 -15.976562 9.28125 -15.828125 9.28125 -15.609375 C 9.28125 -15.585938 9.273438 -15.550781 9.265625 -15.5 C 9.265625 -15.445312 9.265625 -15.421875 9.265625 -15.421875 C 9.054688 -14.835938 8.8125 -14 8.53125 -12.90625 C 8.257812 -11.8125 7.976562 -10.570312 7.6875 -9.1875 C 7.394531 -7.800781 7.125 -6.34375 6.875 -4.8125 C 6.625 -3.289062 6.40625 -1.804688 6.21875 -0.359375 C 6.164062 -0.0976562 6.003906 0.03125 5.734375 0.03125 C 5.617188 0.03125 5.394531 -0.0078125 5.0625 -0.09375 C 4.726562 -0.1875 4.359375 -0.289062 3.953125 -0.40625 C 3.546875 -0.519531 3.164062 -0.628906 2.8125 -0.734375 C 2.457031 -0.847656 2.195312 -0.929688 2.03125 -0.984375 C 1.875 -1.035156 1.753906 -1.132812 1.671875 -1.28125 C 1.585938 -1.425781 1.546875 -1.554688 1.546875 -1.671875 C 1.546875 -2.453125 1.625 -3.476562 1.78125 -4.75 C 1.945312 -6.03125 2.140625 -7.347656 2.359375 -8.703125 L 2.390625 -8.875 C 2.390625 -8.96875 2.367188 -9.078125 2.328125 -9.203125 C 2.285156 -9.328125 2.195312 -9.421875 2.0625 -9.484375 L 1.65625 -9.71875 C 1.550781 -9.769531 1.457031 -9.835938 1.375 -9.921875 C 1.300781 -10.003906 1.265625 -10.125 1.265625 -10.28125 C 1.265625 -10.363281 1.285156 -10.453125 1.328125 -10.546875 C 1.367188 -10.648438 1.390625 -10.703125 1.390625 -10.703125 C 1.578125 -11.078125 1.796875 -11.539062 2.046875 -12.09375 C 2.304688 -12.65625 2.570312 -13.238281 2.84375 -13.84375 C 3.125 -14.457031 3.394531 -15.03125 3.65625 -15.5625 C 3.925781 -16.09375 4.15625 -16.515625 4.34375 -16.828125 Z M 4.34375 -16.828125 "/></g></g><g style="fill:#053b07;fill-opacity:1;"><g transform="translate(60.977155, 43.743514)"><path style="stroke:none" d=""/></g></g><g style="fill:#053b07;fill-opacity:1;"><g transform="translate(64.529476, 43.743514)"><path style="stroke:none" d="M 13.46875 -17 C 13.601562 -16.976562 13.722656 -16.910156 13.828125 -16.796875 C 13.941406 -16.691406 14.007812 -16.566406 14.03125 -16.421875 C 14.050781 -16.296875 14.0625 -16.15625 14.0625 -16 C 14.0625 -15.851562 14.0625 -15.6875 14.0625 -15.5 C 14.0625 -14.945312 14.039062 -14.332031 14 -13.65625 C 13.96875 -12.988281 13.9375 -12.476562 13.90625 -12.125 C 13.832031 -11.820312 13.617188 -11.65625 13.265625 -11.625 C 13.015625 -11.625 12.691406 -11.617188 12.296875 -11.609375 C 11.910156 -11.597656 11.484375 -11.578125 11.015625 -11.546875 C 10.804688 -11.523438 10.65625 -11.472656 10.5625 -11.390625 C 10.46875 -11.304688 10.40625 -11.195312 10.375 -11.0625 C 10 -9.519531 9.601562 -7.820312 9.1875 -5.96875 C 8.78125 -4.125 8.453125 -2.269531 8.203125 -0.40625 C 8.160156 -0.132812 8 0 7.71875 0 C 7.539062 0 7.273438 -0.0351562 6.921875 -0.109375 C 6.566406 -0.191406 6.171875 -0.289062 5.734375 -0.40625 C 5.304688 -0.519531 4.90625 -0.632812 4.53125 -0.75 C 4.164062 -0.875 3.878906 -0.972656 3.671875 -1.046875 C 3.398438 -1.160156 3.265625 -1.351562 3.265625 -1.625 C 3.265625 -1.957031 3.304688 -2.425781 3.390625 -3.03125 C 3.484375 -3.644531 3.597656 -4.320312 3.734375 -5.0625 C 3.867188 -5.800781 4.007812 -6.546875 4.15625 -7.296875 C 4.3125 -8.046875 4.457031 -8.738281 4.59375 -9.375 C 4.726562 -10.007812 4.835938 -10.519531 4.921875 -10.90625 L 4.953125 -11.03125 C 4.953125 -11.257812 4.832031 -11.375 4.59375 -11.375 C 4.570312 -11.375 4.453125 -11.367188 4.234375 -11.359375 C 4.015625 -11.347656 3.773438 -11.335938 3.515625 -11.328125 C 3.265625 -11.316406 3.070312 -11.3125 2.9375 -11.3125 C 2.601562 -11.3125 2.421875 -11.472656 2.390625 -11.796875 C 2.316406 -12.171875 2.265625 -12.609375 2.234375 -13.109375 C 2.210938 -13.609375 2.203125 -14.09375 2.203125 -14.5625 C 2.203125 -14.851562 2.207031 -15.117188 2.21875 -15.359375 C 2.226562 -15.609375 2.242188 -15.816406 2.265625 -15.984375 C 2.273438 -16.117188 2.316406 -16.242188 2.390625 -16.359375 C 2.472656 -16.484375 2.613281 -16.5625 2.8125 -16.59375 C 3.164062 -16.644531 3.644531 -16.703125 4.25 -16.765625 C 4.863281 -16.835938 5.546875 -16.898438 6.296875 -16.953125 C 7.054688 -17.003906 7.832031 -17.046875 8.625 -17.078125 C 9.414062 -17.109375 10.175781 -17.125 10.90625 -17.125 C 11.414062 -17.125 11.890625 -17.113281 12.328125 -17.09375 C 12.765625 -17.082031 13.144531 -17.050781 13.46875 -17 Z M 13.46875 -17 "/></g></g><g style="fill:#053b07;fill-opacity:1;"><g transform="translate(77.013304, 43.743514)"><path style="stroke:none" d="M 8.78125 -12.890625 C 8.457031 -12.890625 8.140625 -12.691406 7.828125 -12.296875 C 7.515625 -11.898438 7.226562 -11.382812 6.96875 -10.75 C 6.707031 -10.113281 6.492188 -9.4375 6.328125 -8.71875 C 6.171875 -8 6.09375 -7.304688 6.09375 -6.640625 C 6.09375 -5.765625 6.207031 -5.179688 6.4375 -4.890625 C 6.675781 -4.609375 6.925781 -4.46875 7.1875 -4.46875 C 7.519531 -4.46875 7.84375 -4.65625 8.15625 -5.03125 C 8.46875 -5.414062 8.75 -5.925781 9 -6.5625 C 9.257812 -7.207031 9.457031 -7.921875 9.59375 -8.703125 C 9.738281 -9.484375 9.8125 -10.257812 9.8125 -11.03125 C 9.8125 -11.289062 9.78125 -11.5625 9.71875 -11.84375 C 9.664062 -12.132812 9.5625 -12.378906 9.40625 -12.578125 C 9.257812 -12.785156 9.050781 -12.890625 8.78125 -12.890625 Z M 7.9375 0.03125 C 6.976562 0.03125 5.945312 -0.15625 4.84375 -0.53125 C 3.75 -0.914062 2.773438 -1.582031 1.921875 -2.53125 C 1.453125 -3.070312 1.128906 -3.753906 0.953125 -4.578125 C 0.773438 -5.398438 0.6875 -6.148438 0.6875 -6.828125 C 0.6875 -7.503906 0.765625 -8.296875 0.921875 -9.203125 C 1.085938 -10.109375 1.34375 -11.03125 1.6875 -11.96875 C 2.03125 -12.90625 2.476562 -13.773438 3.03125 -14.578125 C 3.582031 -15.378906 4.238281 -16.023438 5 -16.515625 C 5.757812 -17.003906 6.640625 -17.25 7.640625 -17.25 C 7.941406 -17.25 8.382812 -17.1875 8.96875 -17.0625 C 9.550781 -16.9375 10.179688 -16.742188 10.859375 -16.484375 C 11.535156 -16.234375 12.171875 -15.929688 12.765625 -15.578125 C 13.359375 -15.222656 13.804688 -14.816406 14.109375 -14.359375 C 14.492188 -13.785156 14.757812 -13.15625 14.90625 -12.46875 C 15.050781 -11.78125 15.125 -11.09375 15.125 -10.40625 C 15.125 -9.644531 15.035156 -8.796875 14.859375 -7.859375 C 14.679688 -6.929688 14.414062 -6.003906 14.0625 -5.078125 C 13.707031 -4.160156 13.242188 -3.3125 12.671875 -2.53125 C 12.109375 -1.757812 11.429688 -1.140625 10.640625 -0.671875 C 9.859375 -0.203125 8.957031 0.03125 7.9375 0.03125 Z M 7.9375 0.03125 "/></g></g><g style="fill:#053b07;fill-opacity:1;"><g transform="translate(91.755429, 43.743514)"><path style="stroke:none" d="M 8.78125 -12.890625 C 8.457031 -12.890625 8.140625 -12.691406 7.828125 -12.296875 C 7.515625 -11.898438 7.226562 -11.382812 6.96875 -10.75 C 6.707031 -10.113281 6.492188 -9.4375 6.328125 -8.71875 C 6.171875 -8 6.09375 -7.304688 6.09375 -6.640625 C 6.09375 -5.765625 6.207031 -5.179688 6.4375 -4.890625 C 6.675781 -4.609375 6.925781 -4.46875 7.1875 -4.46875 C 7.519531 -4.46875 7.84375 -4.65625 8.15625 -5.03125 C 8.46875 -5.414062 8.75 -5.925781 9 -6.5625 C 9.257812 -7.207031 9.457031 -7.921875 9.59375 -8.703125 C 9.738281 -9.484375 9.8125 -10.257812 9.8125 -11.03125 C 9.8125 -11.289062 9.78125 -11.5625 9.71875 -11.84375 C 9.664062 -12.132812 9.5625 -12.378906 9.40625 -12.578125 C 9.257812 -12.785156 9.050781 -12.890625 8.78125 -12.890625 Z M 7.9375 0.03125 C 6.976562 0.03125 5.945312 -0.15625 4.84375 -0.53125 C 3.75 -0.914062 2.773438 -1.582031 1.921875 -2.53125 C 1.453125 -3.070312 1.128906 -3.753906 0.953125 -4.578125 C 0.773438 -5.398438 0.6875 -6.148438 0.6875 -6.828125 C 0.6875 -7.503906 0.765625 -8.296875 0.921875 -9.203125 C 1.085938 -10.109375 1.34375 -11.03125 1.6875 -11.96875 C 2.03125 -12.90625 2.476562 -13.773438 3.03125 -14.578125 C 3.582031 -15.378906 4.238281 -16.023438 5 -16.515625 C 5.757812 -17.003906 6.640625 -17.25 7.640625 -17.25 C 7.941406 -17.25 8.382812 -17.1875 8.96875 -17.0625 C 9.550781 -16.9375 10.179688 -16.742188 10.859375 -16.484375 C 11.535156 -16.234375 12.171875 -15.929688 12.765625 -15.578125 C 13.359375 -15.222656 13.804688 -14.816406 14.109375 -14.359375 C 14.492188 -13.785156 14.757812 -13.15625 14.90625 -12.46875 C 15.050781 -11.78125 15.125 -11.09375 15.125 -10.40625 C 15.125 -9.644531 15.035156 -8.796875 14.859375 -7.859375 C 14.679688 -6.929688 14.414062 -6.003906 14.0625 -5.078125 C 13.707031 -4.160156 13.242188 -3.3125 12.671875 -2.53125 C 12.109375 -1.757812 11.429688 -1.140625 10.640625 -0.671875 C 9.859375 -0.203125 8.957031 0.03125 7.9375 0.03125 Z M 7.9375 0.03125 "/></g></g><g style="fill:#053b07;fill-opacity:1;"><g transform="translate(106.497554, 43.743514)"><path style="stroke:none" d="M 8.78125 -12.890625 C 8.457031 -12.890625 8.140625 -12.691406 7.828125 -12.296875 C 7.515625 -11.898438 7.226562 -11.382812 6.96875 -10.75 C 6.707031 -10.113281 6.492188 -9.4375 6.328125 -8.71875 C 6.171875 -8 6.09375 -7.304688 6.09375 -6.640625 C 6.09375 -5.765625 6.207031 -5.179688 6.4375 -4.890625 C 6.675781 -4.609375 6.925781 -4.46875 7.1875 -4.46875 C 7.519531 -4.46875 7.84375 -4.65625 8.15625 -5.03125 C 8.46875 -5.414062 8.75 -5.925781 9 -6.5625 C 9.257812 -7.207031 9.457031 -7.921875 9.59375 -8.703125 C 9.738281 -9.484375 9.8125 -10.257812 9.8125 -11.03125 C 9.8125 -11.289062 9.78125 -11.5625 9.71875 -11.84375 C 9.664062 -12.132812 9.5625 -12.378906 9.40625 -12.578125 C 9.257812 -12.785156 9.050781 -12.890625 8.78125 -12.890625 Z M 7.9375 0.03125 C 6.976562 0.03125 5.945312 -0.15625 4.84375 -0.53125 C 3.75 -0.914062 2.773438 -1.582031 1.921875 -2.53125 C 1.453125 -3.070312 1.128906 -3.753906 0.953125 -4.578125 C 0.773438 -5.398438 0.6875 -6.148438 0.6875 -6.828125 C 0.6875 -7.503906 0.765625 -8.296875 0.921875 -9.203125 C 1.085938 -10.109375 1.34375 -11.03125 1.6875 -11.96875 C 2.03125 -12.90625 2.476562 -13.773438 3.03125 -14.578125 C 3.582031 -15.378906 4.238281 -16.023438 5 -16.515625 C 5.757812 -17.003906 6.640625 -17.25 7.640625 -17.25 C 7.941406 -17.25 8.382812 -17.1875 8.96875 -17.0625 C 9.550781 -16.9375 10.179688 -16.742188 10.859375 -16.484375 C 11.535156 -16.234375 12.171875 -15.929688 12.765625 -15.578125 C 13.359375 -15.222656 13.804688 -14.816406 14.109375 -14.359375 C 14.492188 -13.785156 14.757812 -13.15625 14.90625 -12.46875 C 15.050781 -11.78125 15.125 -11.09375 15.125 -10.40625 C 15.125 -9.644531 15.035156 -8.796875 14.859375 -7.859375 C 14.679688 -6.929688 14.414062 -6.003906 14.0625 -5.078125 C 13.707031 -4.160156 13.242188 -3.3125 12.671875 -2.53125 C 12.109375 -1.757812 11.429688 -1.140625 10.640625 -0.671875 C 9.859375 -0.203125 8.957031 0.03125 7.9375 0.03125 Z M 7.9375 0.03125 "/></g></g><g style="fill:#053b07;fill-opacity:1;"><g transform="translate(121.23968, 43.743514)"><path style="stroke:none" d=""/></g></g><g style="fill:#053b07;fill-opacity:1;"><g transform="translate(124.792001, 43.743514)"><path style="stroke:none" d="M 0.78125 -7.078125 C 0.96875 -7.128906 1.234375 -7.191406 1.578125 -7.265625 C 1.929688 -7.347656 2.296875 -7.421875 2.671875 -7.484375 C 3.054688 -7.554688 3.394531 -7.613281 3.6875 -7.65625 C 3.988281 -7.707031 4.179688 -7.734375 4.265625 -7.734375 C 4.367188 -7.734375 4.460938 -7.691406 4.546875 -7.609375 C 4.628906 -7.523438 4.675781 -7.414062 4.6875 -7.28125 C 4.726562 -6.925781 4.773438 -6.53125 4.828125 -6.09375 C 4.890625 -5.65625 4.960938 -5.269531 5.046875 -4.9375 C 5.128906 -4.601562 5.222656 -4.4375 5.328125 -4.4375 C 5.492188 -4.4375 5.664062 -4.664062 5.84375 -5.125 C 6.019531 -5.582031 6.195312 -6.191406 6.375 -6.953125 C 6.550781 -7.710938 6.722656 -8.546875 6.890625 -9.453125 C 7.066406 -10.367188 7.226562 -11.285156 7.375 -12.203125 C 7.519531 -13.117188 7.644531 -13.96875 7.75 -14.75 C 7.863281 -15.539062 7.953125 -16.171875 8.015625 -16.640625 C 8.066406 -16.910156 8.242188 -17.046875 8.546875 -17.046875 C 8.679688 -17.046875 8.914062 -17.015625 9.25 -16.953125 C 9.582031 -16.898438 9.960938 -16.828125 10.390625 -16.734375 C 10.816406 -16.640625 11.234375 -16.535156 11.640625 -16.421875 C 12.046875 -16.316406 12.382812 -16.207031 12.65625 -16.09375 C 12.914062 -15.988281 13.046875 -15.785156 13.046875 -15.484375 C 13.046875 -15.109375 13 -14.503906 12.90625 -13.671875 C 12.8125 -12.847656 12.675781 -11.910156 12.5 -10.859375 C 12.320312 -9.804688 12.117188 -8.753906 11.890625 -7.703125 C 11.660156 -6.660156 11.410156 -5.722656 11.140625 -4.890625 C 10.785156 -3.960938 10.363281 -3.125 9.875 -2.375 C 9.394531 -1.632812 8.867188 -1.046875 8.296875 -0.609375 C 7.722656 -0.179688 7.085938 0.03125 6.390625 0.03125 C 5.628906 0.03125 4.890625 -0.0859375 4.171875 -0.328125 C 3.453125 -0.566406 2.828125 -0.863281 2.296875 -1.21875 C 1.765625 -1.570312 1.390625 -1.925781 1.171875 -2.28125 C 0.953125 -2.632812 0.773438 -3.066406 0.640625 -3.578125 C 0.515625 -4.097656 0.429688 -4.609375 0.390625 -5.109375 C 0.347656 -5.609375 0.328125 -6.019531 0.328125 -6.34375 L 0.328125 -6.5 C 0.347656 -6.6875 0.40625 -6.820312 0.5 -6.90625 C 0.59375 -7 0.6875 -7.054688 0.78125 -7.078125 Z M 0.78125 -7.078125 "/></g></g><g style="fill:#053b07;fill-opacity:1;"><g transform="translate(136.61615, 43.743514)"><path style="stroke:none" d="M 12.390625 -15.859375 C 12.523438 -15.773438 12.632812 -15.679688 12.71875 -15.578125 C 12.800781 -15.472656 12.867188 -15.332031 12.921875 -15.15625 C 12.984375 -14.84375 13.023438 -14.234375 13.046875 -13.328125 C 13.078125 -12.429688 13.09375 -11.378906 13.09375 -10.171875 C 13.09375 -9.296875 13.082031 -8.378906 13.0625 -7.421875 C 13.050781 -6.460938 13.023438 -5.535156 12.984375 -4.640625 C 12.953125 -3.742188 12.910156 -2.925781 12.859375 -2.1875 C 12.804688 -1.457031 12.75 -0.863281 12.6875 -0.40625 C 12.6875 -0.300781 12.640625 -0.195312 12.546875 -0.09375 C 12.453125 0 12.285156 0.046875 12.046875 0.046875 C 11.929688 0.046875 11.679688 0.03125 11.296875 0 C 10.921875 -0.03125 10.507812 -0.0703125 10.0625 -0.125 C 9.613281 -0.175781 9.207031 -0.226562 8.84375 -0.28125 C 8.476562 -0.332031 8.242188 -0.375 8.140625 -0.40625 C 7.816406 -0.488281 7.65625 -0.679688 7.65625 -0.984375 C 7.65625 -1.242188 7.664062 -1.519531 7.6875 -1.8125 C 7.707031 -2.113281 7.722656 -2.378906 7.734375 -2.609375 C 7.753906 -2.847656 7.765625 -2.984375 7.765625 -3.015625 C 7.765625 -3.140625 7.722656 -3.242188 7.640625 -3.328125 C 7.566406 -3.410156 7.460938 -3.453125 7.328125 -3.453125 C 7.265625 -3.453125 7.09375 -3.441406 6.8125 -3.421875 C 6.53125 -3.410156 6.242188 -3.394531 5.953125 -3.375 C 5.671875 -3.351562 5.472656 -3.335938 5.359375 -3.328125 C 5.234375 -3.304688 5.113281 -3.273438 5 -3.234375 C 4.882812 -3.191406 4.773438 -3.050781 4.671875 -2.8125 C 4.585938 -2.582031 4.492188 -2.296875 4.390625 -1.953125 C 4.285156 -1.617188 4.191406 -1.300781 4.109375 -1 C 4.023438 -0.707031 3.957031 -0.5 3.90625 -0.375 C 3.84375 -0.144531 3.679688 -0.03125 3.421875 -0.03125 C 3.253906 -0.03125 2.957031 -0.109375 2.53125 -0.265625 C 2.113281 -0.421875 1.6875 -0.601562 1.25 -0.8125 C 0.820312 -1.03125 0.5 -1.207031 0.28125 -1.34375 C 0.0390625 -1.5 -0.078125 -1.6875 -0.078125 -1.90625 C -0.078125 -1.914062 -0.0664062 -1.953125 -0.046875 -2.015625 C -0.0351562 -2.085938 0 -2.25 0.0625 -2.5 C 0.125 -2.75 0.226562 -3.140625 0.375 -3.671875 C 0.394531 -3.765625 0.410156 -3.851562 0.421875 -3.9375 C 0.429688 -4.019531 0.4375 -4.09375 0.4375 -4.15625 C 0.4375 -4.332031 0.414062 -4.554688 0.375 -4.828125 C 0.34375 -5.097656 0.3125 -5.367188 0.28125 -5.640625 C 0.25 -5.910156 0.234375 -6.113281 0.234375 -6.25 C 0.234375 -6.53125 0.367188 -6.722656 0.640625 -6.828125 L 0.96875 -6.921875 C 1.164062 -6.992188 1.300781 -7.078125 1.375 -7.171875 C 1.457031 -7.265625 1.53125 -7.367188 1.59375 -7.484375 C 1.695312 -7.703125 1.867188 -8.101562 2.109375 -8.6875 C 2.359375 -9.269531 2.644531 -9.941406 2.96875 -10.703125 C 3.289062 -11.460938 3.628906 -12.234375 3.984375 -13.015625 C 4.335938 -13.796875 4.675781 -14.492188 5 -15.109375 C 5.332031 -15.722656 5.628906 -16.164062 5.890625 -16.4375 C 6.003906 -16.5625 6.101562 -16.640625 6.1875 -16.671875 C 6.269531 -16.703125 6.363281 -16.71875 6.46875 -16.71875 C 6.601562 -16.71875 6.796875 -16.675781 7.046875 -16.59375 C 7.304688 -16.507812 7.507812 -16.46875 7.65625 -16.46875 C 7.894531 -16.46875 8.015625 -16.585938 8.015625 -16.828125 C 8.015625 -17.078125 8.117188 -17.203125 8.328125 -17.203125 C 8.460938 -17.203125 8.703125 -17.15625 9.046875 -17.0625 C 9.390625 -16.96875 9.78125 -16.847656 10.21875 -16.703125 C 10.664062 -16.566406 11.085938 -16.421875 11.484375 -16.265625 C 11.878906 -16.109375 12.179688 -15.972656 12.390625 -15.859375 Z M 6.546875 -8.21875 C 6.546875 -8.21875 6.53125 -8.164062 6.5 -8.0625 C 6.476562 -7.96875 6.46875 -7.898438 6.46875 -7.859375 C 6.46875 -7.710938 6.570312 -7.640625 6.78125 -7.640625 C 6.820312 -7.640625 6.941406 -7.640625 7.140625 -7.640625 C 7.335938 -7.648438 7.441406 -7.65625 7.453125 -7.65625 C 7.585938 -7.675781 7.703125 -7.707031 7.796875 -7.75 C 7.890625 -7.789062 7.957031 -7.921875 8 -8.140625 C 8.007812 -8.328125 8.019531 -8.585938 8.03125 -8.921875 C 8.050781 -9.253906 8.066406 -9.597656 8.078125 -9.953125 C 8.085938 -10.316406 8.09375 -10.640625 8.09375 -10.921875 C 8.09375 -11.203125 8.09375 -11.382812 8.09375 -11.46875 C 8.09375 -11.675781 8.035156 -11.78125 7.921875 -11.78125 C 7.796875 -11.78125 7.703125 -11.691406 7.640625 -11.515625 C 7.515625 -11.210938 7.335938 -10.734375 7.109375 -10.078125 C 6.890625 -9.429688 6.703125 -8.8125 6.546875 -8.21875 Z M 6.546875 -8.21875 "/></g></g><g style="fill:#053b07;fill-opacity:1;"><g transform="translate(150.140337, 43.743514)"><path style="stroke:none" d="M 4.875 -0.4375 C 4.84375 -0.175781 4.691406 -0.046875 4.421875 -0.046875 C 4.265625 -0.046875 4 -0.0859375 3.625 -0.171875 C 3.257812 -0.253906 2.859375 -0.351562 2.421875 -0.46875 C 1.992188 -0.59375 1.597656 -0.707031 1.234375 -0.8125 C 0.867188 -0.925781 0.617188 -1.007812 0.484375 -1.0625 C 0.347656 -1.132812 0.242188 -1.238281 0.171875 -1.375 C 0.109375 -1.507812 0.078125 -1.632812 0.078125 -1.75 C 0.109375 -2.425781 0.195312 -3.296875 0.34375 -4.359375 C 0.5 -5.429688 0.6875 -6.570312 0.90625 -7.78125 C 1.132812 -9 1.378906 -10.203125 1.640625 -11.390625 C 1.898438 -12.578125 2.15625 -13.632812 2.40625 -14.5625 C 2.664062 -15.488281 2.90625 -16.191406 3.125 -16.671875 C 3.269531 -16.972656 3.53125 -17.125 3.90625 -17.125 C 4.039062 -17.125 4.316406 -17.09375 4.734375 -17.03125 C 5.148438 -16.976562 5.625 -16.90625 6.15625 -16.8125 C 6.6875 -16.71875 7.210938 -16.609375 7.734375 -16.484375 C 8.265625 -16.359375 8.707031 -16.21875 9.0625 -16.0625 C 9.363281 -15.90625 9.515625 -15.660156 9.515625 -15.328125 C 9.492188 -14.804688 9.445312 -14.054688 9.375 -13.078125 C 9.3125 -12.109375 9.28125 -11.113281 9.28125 -10.09375 C 9.28125 -9.957031 9.300781 -9.890625 9.34375 -9.890625 C 9.394531 -9.890625 9.425781 -9.953125 9.4375 -10.078125 C 9.8125 -11.191406 10.179688 -12.320312 10.546875 -13.46875 C 10.910156 -14.625 11.328125 -15.757812 11.796875 -16.875 C 11.847656 -16.988281 11.925781 -17.085938 12.03125 -17.171875 C 12.144531 -17.265625 12.285156 -17.3125 12.453125 -17.3125 C 13.171875 -17.257812 13.921875 -17.15625 14.703125 -17 C 15.492188 -16.84375 16.238281 -16.664062 16.9375 -16.46875 C 17.632812 -16.28125 18.1875 -16.09375 18.59375 -15.90625 C 18.769531 -15.820312 18.859375 -15.671875 18.859375 -15.453125 C 18.859375 -15.390625 18.835938 -15.304688 18.796875 -15.203125 C 18.597656 -14.628906 18.359375 -13.804688 18.078125 -12.734375 C 17.796875 -11.671875 17.503906 -10.460938 17.203125 -9.109375 C 16.910156 -7.753906 16.640625 -6.332031 16.390625 -4.84375 C 16.140625 -3.351562 15.925781 -1.882812 15.75 -0.4375 C 15.71875 -0.164062 15.566406 -0.03125 15.296875 -0.03125 C 15.160156 -0.03125 14.914062 -0.0664062 14.5625 -0.140625 C 14.207031 -0.210938 13.820312 -0.300781 13.40625 -0.40625 C 12.988281 -0.519531 12.585938 -0.632812 12.203125 -0.75 C 11.828125 -0.875 11.550781 -0.976562 11.375 -1.0625 C 11.21875 -1.132812 11.101562 -1.238281 11.03125 -1.375 C 10.96875 -1.507812 10.9375 -1.632812 10.9375 -1.75 C 10.9375 -2.050781 10.960938 -2.476562 11.015625 -3.03125 C 11.078125 -3.582031 11.160156 -4.175781 11.265625 -4.8125 C 11.367188 -5.445312 11.46875 -6.054688 11.5625 -6.640625 C 11.65625 -7.222656 11.726562 -7.710938 11.78125 -8.109375 C 11.84375 -8.503906 11.875 -8.726562 11.875 -8.78125 C 11.875 -8.863281 11.847656 -8.90625 11.796875 -8.90625 C 11.710938 -8.90625 11.660156 -8.847656 11.640625 -8.734375 C 11.460938 -8.003906 11.265625 -7.253906 11.046875 -6.484375 C 10.835938 -5.710938 10.640625 -5 10.453125 -4.34375 C 10.265625 -3.695312 10.101562 -3.195312 9.96875 -2.84375 C 9.851562 -2.570312 9.675781 -2.4375 9.4375 -2.4375 C 9.320312 -2.4375 9.09375 -2.472656 8.75 -2.546875 C 8.414062 -2.628906 8.0625 -2.722656 7.6875 -2.828125 C 7.3125 -2.941406 7.007812 -3.046875 6.78125 -3.140625 C 6.601562 -3.222656 6.484375 -3.335938 6.421875 -3.484375 C 6.367188 -3.628906 6.332031 -3.769531 6.3125 -3.90625 C 6.28125 -4.34375 6.257812 -4.859375 6.25 -5.453125 C 6.25 -6.046875 6.25 -6.644531 6.25 -7.25 L 6.25 -8.375 C 6.25 -8.488281 6.210938 -8.546875 6.140625 -8.546875 C 6.078125 -8.546875 6.035156 -8.488281 6.015625 -8.375 C 5.742188 -7.132812 5.519531 -5.816406 5.34375 -4.421875 C 5.175781 -3.023438 5.019531 -1.695312 4.875 -0.4375 Z M 4.875 -0.4375 "/></g></g><g style="fill:#ffffff;fill-opacity:1;"><g transform="translate(51.172699, 41.500427)"><path style="stroke:none" d="M 4.34375 -16.828125 C 4.488281 -17.023438 4.691406 -17.125 4.953125 -17.125 C 5.085938 -17.125 5.332031 -17.082031 5.6875 -17 C 6.039062 -16.914062 6.4375 -16.8125 6.875 -16.6875 C 7.3125 -16.570312 7.71875 -16.453125 8.09375 -16.328125 C 8.476562 -16.210938 8.765625 -16.125 8.953125 -16.0625 C 9.171875 -15.976562 9.28125 -15.828125 9.28125 -15.609375 C 9.28125 -15.585938 9.273438 -15.550781 9.265625 -15.5 C 9.265625 -15.445312 9.265625 -15.421875 9.265625 -15.421875 C 9.054688 -14.835938 8.8125 -14 8.53125 -12.90625 C 8.257812 -11.8125 7.976562 -10.570312 7.6875 -9.1875 C 7.394531 -7.800781 7.125 -6.34375 6.875 -4.8125 C 6.625 -3.289062 6.40625 -1.804688 6.21875 -0.359375 C 6.164062 -0.0976562 6.003906 0.03125 5.734375 0.03125 C 5.617188 0.03125 5.394531 -0.0078125 5.0625 -0.09375 C 4.726562 -0.1875 4.359375 -0.289062 3.953125 -0.40625 C 3.546875 -0.519531 3.164062 -0.628906 2.8125 -0.734375 C 2.457031 -0.847656 2.195312 -0.929688 2.03125 -0.984375 C 1.875 -1.035156 1.753906 -1.132812 1.671875 -1.28125 C 1.585938 -1.425781 1.546875 -1.554688 1.546875 -1.671875 C 1.546875 -2.453125 1.625 -3.476562 1.78125 -4.75 C 1.945312 -6.03125 2.140625 -7.347656 2.359375 -8.703125 L 2.390625 -8.875 C 2.390625 -8.96875 2.367188 -9.078125 2.328125 -9.203125 C 2.285156 -9.328125 2.195312 -9.421875 2.0625 -9.484375 L 1.65625 -9.71875 C 1.550781 -9.769531 1.457031 -9.835938 1.375 -9.921875 C 1.300781 -10.003906 1.265625 -10.125 1.265625 -10.28125 C 1.265625 -10.363281 1.285156 -10.453125 1.328125 -10.546875 C 1.367188 -10.648438 1.390625 -10.703125 1.390625 -10.703125 C 1.578125 -11.078125 1.796875 -11.539062 2.046875 -12.09375 C 2.304688 -12.65625 2.570312 -13.238281 2.84375 -13.84375 C 3.125 -14.457031 3.394531 -15.03125 3.65625 -15.5625 C 3.925781 -16.09375 4.15625 -16.515625 4.34375 -16.828125 Z M 4.34375 -16.828125 "/></g></g><g style="fill:#ffffff;fill-opacity:1;"><g transform="translate(58.734067, 41.500427)"><path style="stroke:none" d=""/></g></g><g style="fill:#ffffff;fill-opacity:1;"><g transform="translate(62.286388, 41.500427)"><path style="stroke:none" d="M 13.46875 -17 C 13.601562 -16.976562 13.722656 -16.910156 13.828125 -16.796875 C 13.941406 -16.691406 14.007812 -16.566406 14.03125 -16.421875 C 14.050781 -16.296875 14.0625 -16.15625 14.0625 -16 C 14.0625 -15.851562 14.0625 -15.6875 14.0625 -15.5 C 14.0625 -14.945312 14.039062 -14.332031 14 -13.65625 C 13.96875 -12.988281 13.9375 -12.476562 13.90625 -12.125 C 13.832031 -11.820312 13.617188 -11.65625 13.265625 -11.625 C 13.015625 -11.625 12.691406 -11.617188 12.296875 -11.609375 C 11.910156 -11.597656 11.484375 -11.578125 11.015625 -11.546875 C 10.804688 -11.523438 10.65625 -11.472656 10.5625 -11.390625 C 10.46875 -11.304688 10.40625 -11.195312 10.375 -11.0625 C 10 -9.519531 9.601562 -7.820312 9.1875 -5.96875 C 8.78125 -4.125 8.453125 -2.269531 8.203125 -0.40625 C 8.160156 -0.132812 8 0 7.71875 0 C 7.539062 0 7.273438 -0.0351562 6.921875 -0.109375 C 6.566406 -0.191406 6.171875 -0.289062 5.734375 -0.40625 C 5.304688 -0.519531 4.90625 -0.632812 4.53125 -0.75 C 4.164062 -0.875 3.878906 -0.972656 3.671875 -1.046875 C 3.398438 -1.160156 3.265625 -1.351562 3.265625 -1.625 C 3.265625 -1.957031 3.304688 -2.425781 3.390625 -3.03125 C 3.484375 -3.644531 3.597656 -4.320312 3.734375 -5.0625 C 3.867188 -5.800781 4.007812 -6.546875 4.15625 -7.296875 C 4.3125 -8.046875 4.457031 -8.738281 4.59375 -9.375 C 4.726562 -10.007812 4.835938 -10.519531 4.921875 -10.90625 L 4.953125 -11.03125 C 4.953125 -11.257812 4.832031 -11.375 4.59375 -11.375 C 4.570312 -11.375 4.453125 -11.367188 4.234375 -11.359375 C 4.015625 -11.347656 3.773438 -11.335938 3.515625 -11.328125 C 3.265625 -11.316406 3.070312 -11.3125 2.9375 -11.3125 C 2.601562 -11.3125 2.421875 -11.472656 2.390625 -11.796875 C 2.316406 -12.171875 2.265625 -12.609375 2.234375 -13.109375 C 2.210938 -13.609375 2.203125 -14.09375 2.203125 -14.5625 C 2.203125 -14.851562 2.207031 -15.117188 2.21875 -15.359375 C 2.226562 -15.609375 2.242188 -15.816406 2.265625 -15.984375 C 2.273438 -16.117188 2.316406 -16.242188 2.390625 -16.359375 C 2.472656 -16.484375 2.613281 -16.5625 2.8125 -16.59375 C 3.164062 -16.644531 3.644531 -16.703125 4.25 -16.765625 C 4.863281 -16.835938 5.546875 -16.898438 6.296875 -16.953125 C 7.054688 -17.003906 7.832031 -17.046875 8.625 -17.078125 C 9.414062 -17.109375 10.175781 -17.125 10.90625 -17.125 C 11.414062 -17.125 11.890625 -17.113281 12.328125 -17.09375 C 12.765625 -17.082031 13.144531 -17.050781 13.46875 -17 Z M 13.46875 -17 "/></g></g><g style="fill:#ffffff;fill-opacity:1;"><g transform="translate(74.770215, 41.500427)"><path style="stroke:none" d="M 8.78125 -12.890625 C 8.457031 -12.890625 8.140625 -12.691406 7.828125 -12.296875 C 7.515625 -11.898438 7.226562 -11.382812 6.96875 -10.75 C 6.707031 -10.113281 6.492188 -9.4375 6.328125 -8.71875 C 6.171875 -8 6.09375 -7.304688 6.09375 -6.640625 C 6.09375 -5.765625 6.207031 -5.179688 6.4375 -4.890625 C 6.675781 -4.609375 6.925781 -4.46875 7.1875 -4.46875 C 7.519531 -4.46875 7.84375 -4.65625 8.15625 -5.03125 C 8.46875 -5.414062 8.75 -5.925781 9 -6.5625 C 9.257812 -7.207031 9.457031 -7.921875 9.59375 -8.703125 C 9.738281 -9.484375 9.8125 -10.257812 9.8125 -11.03125 C 9.8125 -11.289062 9.78125 -11.5625 9.71875 -11.84375 C 9.664062 -12.132812 9.5625 -12.378906 9.40625 -12.578125 C 9.257812 -12.785156 9.050781 -12.890625 8.78125 -12.890625 Z M 7.9375 0.03125 C 6.976562 0.03125 5.945312 -0.15625 4.84375 -0.53125 C 3.75 -0.914062 2.773438 -1.582031 1.921875 -2.53125 C 1.453125 -3.070312 1.128906 -3.753906 0.953125 -4.578125 C 0.773438 -5.398438 0.6875 -6.148438 0.6875 -6.828125 C 0.6875 -7.503906 0.765625 -8.296875 0.921875 -9.203125 C 1.085938 -10.109375 1.34375 -11.03125 1.6875 -11.96875 C 2.03125 -12.90625 2.476562 -13.773438 3.03125 -14.578125 C 3.582031 -15.378906 4.238281 -16.023438 5 -16.515625 C 5.757812 -17.003906 6.640625 -17.25 7.640625 -17.25 C 7.941406 -17.25 8.382812 -17.1875 8.96875 -17.0625 C 9.550781 -16.9375 10.179688 -16.742188 10.859375 -16.484375 C 11.535156 -16.234375 12.171875 -15.929688 12.765625 -15.578125 C 13.359375 -15.222656 13.804688 -14.816406 14.109375 -14.359375 C 14.492188 -13.785156 14.757812 -13.15625 14.90625 -12.46875 C 15.050781 -11.78125 15.125 -11.09375 15.125 -10.40625 C 15.125 -9.644531 15.035156 -8.796875 14.859375 -7.859375 C 14.679688 -6.929688 14.414062 -6.003906 14.0625 -5.078125 C 13.707031 -4.160156 13.242188 -3.3125 12.671875 -2.53125 C 12.109375 -1.757812 11.429688 -1.140625 10.640625 -0.671875 C 9.859375 -0.203125 8.957031 0.03125 7.9375 0.03125 Z M 7.9375 0.03125 "/></g></g><g style="fill:#ffffff;fill-opacity:1;"><g transform="translate(89.512341, 41.500427)"><path style="stroke:none" d="M 8.78125 -12.890625 C 8.457031 -12.890625 8.140625 -12.691406 7.828125 -12.296875 C 7.515625 -11.898438 7.226562 -11.382812 6.96875 -10.75 C 6.707031 -10.113281 6.492188 -9.4375 6.328125 -8.71875 C 6.171875 -8 6.09375 -7.304688 6.09375 -6.640625 C 6.09375 -5.765625 6.207031 -5.179688 6.4375 -4.890625 C 6.675781 -4.609375 6.925781 -4.46875 7.1875 -4.46875 C 7.519531 -4.46875 7.84375 -4.65625 8.15625 -5.03125 C 8.46875 -5.414062 8.75 -5.925781 9 -6.5625 C 9.257812 -7.207031 9.457031 -7.921875 9.59375 -8.703125 C 9.738281 -9.484375 9.8125 -10.257812 9.8125 -11.03125 C 9.8125 -11.289062 9.78125 -11.5625 9.71875 -11.84375 C 9.664062 -12.132812 9.5625 -12.378906 9.40625 -12.578125 C 9.257812 -12.785156 9.050781 -12.890625 8.78125 -12.890625 Z M 7.9375 0.03125 C 6.976562 0.03125 5.945312 -0.15625 4.84375 -0.53125 C 3.75 -0.914062 2.773438 -1.582031 1.921875 -2.53125 C 1.453125 -3.070312 1.128906 -3.753906 0.953125 -4.578125 C 0.773438 -5.398438 0.6875 -6.148438 0.6875 -6.828125 C 0.6875 -7.503906 0.765625 -8.296875 0.921875 -9.203125 C 1.085938 -10.109375 1.34375 -11.03125 1.6875 -11.96875 C 2.03125 -12.90625 2.476562 -13.773438 3.03125 -14.578125 C 3.582031 -15.378906 4.238281 -16.023438 5 -16.515625 C 5.757812 -17.003906 6.640625 -17.25 7.640625 -17.25 C 7.941406 -17.25 8.382812 -17.1875 8.96875 -17.0625 C 9.550781 -16.9375 10.179688 -16.742188 10.859375 -16.484375 C 11.535156 -16.234375 12.171875 -15.929688 12.765625 -15.578125 C 13.359375 -15.222656 13.804688 -14.816406 14.109375 -14.359375 C 14.492188 -13.785156 14.757812 -13.15625 14.90625 -12.46875 C 15.050781 -11.78125 15.125 -11.09375 15.125 -10.40625 C 15.125 -9.644531 15.035156 -8.796875 14.859375 -7.859375 C 14.679688 -6.929688 14.414062 -6.003906 14.0625 -5.078125 C 13.707031 -4.160156 13.242188 -3.3125 12.671875 -2.53125 C 12.109375 -1.757812 11.429688 -1.140625 10.640625 -0.671875 C 9.859375 -0.203125 8.957031 0.03125 7.9375 0.03125 Z M 7.9375 0.03125 "/></g></g><g style="fill:#ffffff;fill-opacity:1;"><g transform="translate(104.254466, 41.500427)"><path style="stroke:none" d="M 8.78125 -12.890625 C 8.457031 -12.890625 8.140625 -12.691406 7.828125 -12.296875 C 7.515625 -11.898438 7.226562 -11.382812 6.96875 -10.75 C 6.707031 -10.113281 6.492188 -9.4375 6.328125 -8.71875 C 6.171875 -8 6.09375 -7.304688 6.09375 -6.640625 C 6.09375 -5.765625 6.207031 -5.179688 6.4375 -4.890625 C 6.675781 -4.609375 6.925781 -4.46875 7.1875 -4.46875 C 7.519531 -4.46875 7.84375 -4.65625 8.15625 -5.03125 C 8.46875 -5.414062 8.75 -5.925781 9 -6.5625 C 9.257812 -7.207031 9.457031 -7.921875 9.59375 -8.703125 C 9.738281 -9.484375 9.8125 -10.257812 9.8125 -11.03125 C 9.8125 -11.289062 9.78125 -11.5625 9.71875 -11.84375 C 9.664062 -12.132812 9.5625 -12.378906 9.40625 -12.578125 C 9.257812 -12.785156 9.050781 -12.890625 8.78125 -12.890625 Z M 7.9375 0.03125 C 6.976562 0.03125 5.945312 -0.15625 4.84375 -0.53125 C 3.75 -0.914062 2.773438 -1.582031 1.921875 -2.53125 C 1.453125 -3.070312 1.128906 -3.753906 0.953125 -4.578125 C 0.773438 -5.398438 0.6875 -6.148438 0.6875 -6.828125 C 0.6875 -7.503906 0.765625 -8.296875 0.921875 -9.203125 C 1.085938 -10.109375 1.34375 -11.03125 1.6875 -11.96875 C 2.03125 -12.90625 2.476562 -13.773438 3.03125 -14.578125 C 3.582031 -15.378906 4.238281 -16.023438 5 -16.515625 C 5.757812 -17.003906 6.640625 -17.25 7.640625 -17.25 C 7.941406 -17.25 8.382812 -17.1875 8.96875 -17.0625 C 9.550781 -16.9375 10.179688 -16.742188 10.859375 -16.484375 C 11.535156 -16.234375 12.171875 -15.929688 12.765625 -15.578125 C 13.359375 -15.222656 13.804688 -14.816406 14.109375 -14.359375 C 14.492188 -13.785156 14.757812 -13.15625 14.90625 -12.46875 C 15.050781 -11.78125 15.125 -11.09375 15.125 -10.40625 C 15.125 -9.644531 15.035156 -8.796875 14.859375 -7.859375 C 14.679688 -6.929688 14.414062 -6.003906 14.0625 -5.078125 C 13.707031 -4.160156 13.242188 -3.3125 12.671875 -2.53125 C 12.109375 -1.757812 11.429688 -1.140625 10.640625 -0.671875 C 9.859375 -0.203125 8.957031 0.03125 7.9375 0.03125 Z M 7.9375 0.03125 "/></g></g><g style="fill:#ffffff;fill-opacity:1;"><g transform="translate(118.996591, 41.500427)"><path style="stroke:none" d=""/></g></g><g style="fill:#ffffff;fill-opacity:1;"><g transform="translate(122.548912, 41.500427)"><path style="stroke:none" d="M 0.78125 -7.078125 C 0.96875 -7.128906 1.234375 -7.191406 1.578125 -7.265625 C 1.929688 -7.347656 2.296875 -7.421875 2.671875 -7.484375 C 3.054688 -7.554688 3.394531 -7.613281 3.6875 -7.65625 C 3.988281 -7.707031 4.179688 -7.734375 4.265625 -7.734375 C 4.367188 -7.734375 4.460938 -7.691406 4.546875 -7.609375 C 4.628906 -7.523438 4.675781 -7.414062 4.6875 -7.28125 C 4.726562 -6.925781 4.773438 -6.53125 4.828125 -6.09375 C 4.890625 -5.65625 4.960938 -5.269531 5.046875 -4.9375 C 5.128906 -4.601562 5.222656 -4.4375 5.328125 -4.4375 C 5.492188 -4.4375 5.664062 -4.664062 5.84375 -5.125 C 6.019531 -5.582031 6.195312 -6.191406 6.375 -6.953125 C 6.550781 -7.710938 6.722656 -8.546875 6.890625 -9.453125 C 7.066406 -10.367188 7.226562 -11.285156 7.375 -12.203125 C 7.519531 -13.117188 7.644531 -13.96875 7.75 -14.75 C 7.863281 -15.539062 7.953125 -16.171875 8.015625 -16.640625 C 8.066406 -16.910156 8.242188 -17.046875 8.546875 -17.046875 C 8.679688 -17.046875 8.914062 -17.015625 9.25 -16.953125 C 9.582031 -16.898438 9.960938 -16.828125 10.390625 -16.734375 C 10.816406 -16.640625 11.234375 -16.535156 11.640625 -16.421875 C 12.046875 -16.316406 12.382812 -16.207031 12.65625 -16.09375 C 12.914062 -15.988281 13.046875 -15.785156 13.046875 -15.484375 C 13.046875 -15.109375 13 -14.503906 12.90625 -13.671875 C 12.8125 -12.847656 12.675781 -11.910156 12.5 -10.859375 C 12.320312 -9.804688 12.117188 -8.753906 11.890625 -7.703125 C 11.660156 -6.660156 11.410156 -5.722656 11.140625 -4.890625 C 10.785156 -3.960938 10.363281 -3.125 9.875 -2.375 C 9.394531 -1.632812 8.867188 -1.046875 8.296875 -0.609375 C 7.722656 -0.179688 7.085938 0.03125 6.390625 0.03125 C 5.628906 0.03125 4.890625 -0.0859375 4.171875 -0.328125 C 3.453125 -0.566406 2.828125 -0.863281 2.296875 -1.21875 C 1.765625 -1.570312 1.390625 -1.925781 1.171875 -2.28125 C 0.953125 -2.632812 0.773438 -3.066406 0.640625 -3.578125 C 0.515625 -4.097656 0.429688 -4.609375 0.390625 -5.109375 C 0.347656 -5.609375 0.328125 -6.019531 0.328125 -6.34375 L 0.328125 -6.5 C 0.347656 -6.6875 0.40625 -6.820312 0.5 -6.90625 C 0.59375 -7 0.6875 -7.054688 0.78125 -7.078125 Z M 0.78125 -7.078125 "/></g></g><g style="fill:#ffffff;fill-opacity:1;"><g transform="translate(134.373061, 41.500427)"><path style="stroke:none" d="M 12.390625 -15.859375 C 12.523438 -15.773438 12.632812 -15.679688 12.71875 -15.578125 C 12.800781 -15.472656 12.867188 -15.332031 12.921875 -15.15625 C 12.984375 -14.84375 13.023438 -14.234375 13.046875 -13.328125 C 13.078125 -12.429688 13.09375 -11.378906 13.09375 -10.171875 C 13.09375 -9.296875 13.082031 -8.378906 13.0625 -7.421875 C 13.050781 -6.460938 13.023438 -5.535156 12.984375 -4.640625 C 12.953125 -3.742188 12.910156 -2.925781 12.859375 -2.1875 C 12.804688 -1.457031 12.75 -0.863281 12.6875 -0.40625 C 12.6875 -0.300781 12.640625 -0.195312 12.546875 -0.09375 C 12.453125 0 12.285156 0.046875 12.046875 0.046875 C 11.929688 0.046875 11.679688 0.03125 11.296875 0 C 10.921875 -0.03125 10.507812 -0.0703125 10.0625 -0.125 C 9.613281 -0.175781 9.207031 -0.226562 8.84375 -0.28125 C 8.476562 -0.332031 8.242188 -0.375 8.140625 -0.40625 C 7.816406 -0.488281 7.65625 -0.679688 7.65625 -0.984375 C 7.65625 -1.242188 7.664062 -1.519531 7.6875 -1.8125 C 7.707031 -2.113281 7.722656 -2.378906 7.734375 -2.609375 C 7.753906 -2.847656 7.765625 -2.984375 7.765625 -3.015625 C 7.765625 -3.140625 7.722656 -3.242188 7.640625 -3.328125 C 7.566406 -3.410156 7.460938 -3.453125 7.328125 -3.453125 C 7.265625 -3.453125 7.09375 -3.441406 6.8125 -3.421875 C 6.53125 -3.410156 6.242188 -3.394531 5.953125 -3.375 C 5.671875 -3.351562 5.472656 -3.335938 5.359375 -3.328125 C 5.234375 -3.304688 5.113281 -3.273438 5 -3.234375 C 4.882812 -3.191406 4.773438 -3.050781 4.671875 -2.8125 C 4.585938 -2.582031 4.492188 -2.296875 4.390625 -1.953125 C 4.285156 -1.617188 4.191406 -1.300781 4.109375 -1 C 4.023438 -0.707031 3.957031 -0.5 3.90625 -0.375 C 3.84375 -0.144531 3.679688 -0.03125 3.421875 -0.03125 C 3.253906 -0.03125 2.957031 -0.109375 2.53125 -0.265625 C 2.113281 -0.421875 1.6875 -0.601562 1.25 -0.8125 C 0.820312 -1.03125 0.5 -1.207031 0.28125 -1.34375 C 0.0390625 -1.5 -0.078125 -1.6875 -0.078125 -1.90625 C -0.078125 -1.914062 -0.0664062 -1.953125 -0.046875 -2.015625 C -0.0351562 -2.085938 0 -2.25 0.0625 -2.5 C 0.125 -2.75 0.226562 -3.140625 0.375 -3.671875 C 0.394531 -3.765625 0.410156 -3.851562 0.421875 -3.9375 C 0.429688 -4.019531 0.4375 -4.09375 0.4375 -4.15625 C 0.4375 -4.332031 0.414062 -4.554688 0.375 -4.828125 C 0.34375 -5.097656 0.3125 -5.367188 0.28125 -5.640625 C 0.25 -5.910156 0.234375 -6.113281 0.234375 -6.25 C 0.234375 -6.53125 0.367188 -6.722656 0.640625 -6.828125 L 0.96875 -6.921875 C 1.164062 -6.992188 1.300781 -7.078125 1.375 -7.171875 C 1.457031 -7.265625 1.53125 -7.367188 1.59375 -7.484375 C 1.695312 -7.703125 1.867188 -8.101562 2.109375 -8.6875 C 2.359375 -9.269531 2.644531 -9.941406 2.96875 -10.703125 C 3.289062 -11.460938 3.628906 -12.234375 3.984375 -13.015625 C 4.335938 -13.796875 4.675781 -14.492188 5 -15.109375 C 5.332031 -15.722656 5.628906 -16.164062 5.890625 -16.4375 C 6.003906 -16.5625 6.101562 -16.640625 6.1875 -16.671875 C 6.269531 -16.703125 6.363281 -16.71875 6.46875 -16.71875 C 6.601562 -16.71875 6.796875 -16.675781 7.046875 -16.59375 C 7.304688 -16.507812 7.507812 -16.46875 7.65625 -16.46875 C 7.894531 -16.46875 8.015625 -16.585938 8.015625 -16.828125 C 8.015625 -17.078125 8.117188 -17.203125 8.328125 -17.203125 C 8.460938 -17.203125 8.703125 -17.15625 9.046875 -17.0625 C 9.390625 -16.96875 9.78125 -16.847656 10.21875 -16.703125 C 10.664062 -16.566406 11.085938 -16.421875 11.484375 -16.265625 C 11.878906 -16.109375 12.179688 -15.972656 12.390625 -15.859375 Z M 6.546875 -8.21875 C 6.546875 -8.21875 6.53125 -8.164062 6.5 -8.0625 C 6.476562 -7.96875 6.46875 -7.898438 6.46875 -7.859375 C 6.46875 -7.710938 6.570312 -7.640625 6.78125 -7.640625 C 6.820312 -7.640625 6.941406 -7.640625 7.140625 -7.640625 C 7.335938 -7.648438 7.441406 -7.65625 7.453125 -7.65625 C 7.585938 -7.675781 7.703125 -7.707031 7.796875 -7.75 C 7.890625 -7.789062 7.957031 -7.921875 8 -8.140625 C 8.007812 -8.328125 8.019531 -8.585938 8.03125 -8.921875 C 8.050781 -9.253906 8.066406 -9.597656 8.078125 -9.953125 C 8.085938 -10.316406 8.09375 -10.640625 8.09375 -10.921875 C 8.09375 -11.203125 8.09375 -11.382812 8.09375 -11.46875 C 8.09375 -11.675781 8.035156 -11.78125 7.921875 -11.78125 C 7.796875 -11.78125 7.703125 -11.691406 7.640625 -11.515625 C 7.515625 -11.210938 7.335938 -10.734375 7.109375 -10.078125 C 6.890625 -9.429688 6.703125 -8.8125 6.546875 -8.21875 Z M 6.546875 -8.21875 "/></g></g><g style="fill:#ffffff;fill-opacity:1;"><g transform="translate(147.897249, 41.500427)"><path style="stroke:none" d="M 4.875 -0.4375 C 4.84375 -0.175781 4.691406 -0.046875 4.421875 -0.046875 C 4.265625 -0.046875 4 -0.0859375 3.625 -0.171875 C 3.257812 -0.253906 2.859375 -0.351562 2.421875 -0.46875 C 1.992188 -0.59375 1.597656 -0.707031 1.234375 -0.8125 C 0.867188 -0.925781 0.617188 -1.007812 0.484375 -1.0625 C 0.347656 -1.132812 0.242188 -1.238281 0.171875 -1.375 C 0.109375 -1.507812 0.078125 -1.632812 0.078125 -1.75 C 0.109375 -2.425781 0.195312 -3.296875 0.34375 -4.359375 C 0.5 -5.429688 0.6875 -6.570312 0.90625 -7.78125 C 1.132812 -9 1.378906 -10.203125 1.640625 -11.390625 C 1.898438 -12.578125 2.15625 -13.632812 2.40625 -14.5625 C 2.664062 -15.488281 2.90625 -16.191406 3.125 -16.671875 C 3.269531 -16.972656 3.53125 -17.125 3.90625 -17.125 C 4.039062 -17.125 4.316406 -17.09375 4.734375 -17.03125 C 5.148438 -16.976562 5.625 -16.90625 6.15625 -16.8125 C 6.6875 -16.71875 7.210938 -16.609375 7.734375 -16.484375 C 8.265625 -16.359375 8.707031 -16.21875 9.0625 -16.0625 C 9.363281 -15.90625 9.515625 -15.660156 9.515625 -15.328125 C 9.492188 -14.804688 9.445312 -14.054688 9.375 -13.078125 C 9.3125 -12.109375 9.28125 -11.113281 9.28125 -10.09375 C 9.28125 -9.957031 9.300781 -9.890625 9.34375 -9.890625 C 9.394531 -9.890625 9.425781 -9.953125 9.4375 -10.078125 C 9.8125 -11.191406 10.179688 -12.320312 10.546875 -13.46875 C 10.910156 -14.625 11.328125 -15.757812 11.796875 -16.875 C 11.847656 -16.988281 11.925781 -17.085938 12.03125 -17.171875 C 12.144531 -17.265625 12.285156 -17.3125 12.453125 -17.3125 C 13.171875 -17.257812 13.921875 -17.15625 14.703125 -17 C 15.492188 -16.84375 16.238281 -16.664062 16.9375 -16.46875 C 17.632812 -16.28125 18.1875 -16.09375 18.59375 -15.90625 C 18.769531 -15.820312 18.859375 -15.671875 18.859375 -15.453125 C 18.859375 -15.390625 18.835938 -15.304688 18.796875 -15.203125 C 18.597656 -14.628906 18.359375 -13.804688 18.078125 -12.734375 C 17.796875 -11.671875 17.503906 -10.460938 17.203125 -9.109375 C 16.910156 -7.753906 16.640625 -6.332031 16.390625 -4.84375 C 16.140625 -3.351562 15.925781 -1.882812 15.75 -0.4375 C 15.71875 -0.164062 15.566406 -0.03125 15.296875 -0.03125 C 15.160156 -0.03125 14.914062 -0.0664062 14.5625 -0.140625 C 14.207031 -0.210938 13.820312 -0.300781 13.40625 -0.40625 C 12.988281 -0.519531 12.585938 -0.632812 12.203125 -0.75 C 11.828125 -0.875 11.550781 -0.976562 11.375 -1.0625 C 11.21875 -1.132812 11.101562 -1.238281 11.03125 -1.375 C 10.96875 -1.507812 10.9375 -1.632812 10.9375 -1.75 C 10.9375 -2.050781 10.960938 -2.476562 11.015625 -3.03125 C 11.078125 -3.582031 11.160156 -4.175781 11.265625 -4.8125 C 11.367188 -5.445312 11.46875 -6.054688 11.5625 -6.640625 C 11.65625 -7.222656 11.726562 -7.710938 11.78125 -8.109375 C 11.84375 -8.503906 11.875 -8.726562 11.875 -8.78125 C 11.875 -8.863281 11.847656 -8.90625 11.796875 -8.90625 C 11.710938 -8.90625 11.660156 -8.847656 11.640625 -8.734375 C 11.460938 -8.003906 11.265625 -7.253906 11.046875 -6.484375 C 10.835938 -5.710938 10.640625 -5 10.453125 -4.34375 C 10.265625 -3.695312 10.101562 -3.195312 9.96875 -2.84375 C 9.851562 -2.570312 9.675781 -2.4375 9.4375 -2.4375 C 9.320312 -2.4375 9.09375 -2.472656 8.75 -2.546875 C 8.414062 -2.628906 8.0625 -2.722656 7.6875 -2.828125 C 7.3125 -2.941406 7.007812 -3.046875 6.78125 -3.140625 C 6.601562 -3.222656 6.484375 -3.335938 6.421875 -3.484375 C 6.367188 -3.628906 6.332031 -3.769531 6.3125 -3.90625 C 6.28125 -4.34375 6.257812 -4.859375 6.25 -5.453125 C 6.25 -6.046875 6.25 -6.644531 6.25 -7.25 L 6.25 -8.375 C 6.25 -8.488281 6.210938 -8.546875 6.140625 -8.546875 C 6.078125 -8.546875 6.035156 -8.488281 6.015625 -8.375 C 5.742188 -7.132812 5.519531 -5.816406 5.34375 -4.421875 C 5.175781 -3.023438 5.019531 -1.695312 4.875 -0.4375 Z M 4.875 -0.4375 "/></g></g><g style="fill:#053b07;fill-opacity:1;"><g transform="translate(167.218212, 43.743514)"><path style="stroke:none" d=""/></g></g><g style="fill:#ffffff;fill-opacity:1;"><g transform="translate(164.975123, 41.500427)"><path style="stroke:none" d=""/></g></g><g mask="url(#5d50e87da2)" transform="matrix(1,0,0,1,72,36)"><g clip-path="url(#6b763cb897)"><g clip-rule="nonzero" clip-path="url(#a20de528b0)"><g clip-rule="nonzero" clip-path="url(#750f2e8678)"><g clip-rule="nonzero" clip-path="url(#8cd3e41d73)"><path style=" stroke:none;fill-rule:nonzero;fill:#ffffff;fill-opacity:1;" d="M 3.425781 0.304688 C 2.953125 3.207031 4.1875 6.152344 6.300781 7.894531 C 10.847656 11.210938 17.59375 10.015625 22.972656 9.652344 C 30.433594 8.992188 38.082031 7.835938 45.585938 9.277344 C 53.136719 10.816406 60.320312 16.8125 60.988281 24.632812 C 56.050781 12.785156 43.882812 10.691406 32.054688 11.660156 C 24.308594 11.632812 11.605469 14.421875 5.492188 8.75 C 3.242188 6.488281 2.472656 3.085938 3.425781 0.304688 Z M 3.425781 0.304688 "/></g></g></g></g><mask id="5d50e87da2"><g filter="url(#f46cb41033)"><rect x="0" width="224.87999" y="0" height="74.999997" style="fill:#000000;fill-opacity:0.58;stroke:none;"/></g></mask></g><g mask="url(#77cdf9b970)" transform="matrix(1,0,0,1,61,39)"><g clip-path="url(#69283bf368)"><g clip-rule="nonzero" clip-path="url(#3828538763)"><g clip-rule="nonzero" clip-path="url(#c6a2a5a7c0)"><g clip-rule="nonzero" clip-path="url(#3e1d7c3344)"><path style=" stroke:none;fill-rule:nonzero;fill:#ffffff;fill-opacity:1;" d="M 3.6875 1.0625 C 3.03125 3.867188 4.011719 6.820312 5.917969 8.65625 C 10.054688 12.175781 16.617188 11.429688 21.8125 11.40625 C 29.019531 11.226562 36.449219 10.574219 43.558594 12.449219 C 50.699219 14.421875 57.179688 20.726562 57.277344 28.40625 C 53.363281 16.527344 41.820312 13.722656 30.390625 13.933594 C 22.953125 13.425781 10.558594 15.359375 5.082031 9.4375 C 3.078125 7.089844 2.578125 3.71875 3.6875 1.0625 Z M 3.6875 1.0625 "/></g></g></g></g><mask id="77cdf9b970"><g filter="url(#f46cb41033)"><rect x="0" width="224.87999" y="0" height="74.999997" style="fill:#000000;fill-opacity:0.58;stroke:none;"/></g></mask></g></g></svg>